<mxfile host="app.diagrams.net" modified="2024-05-03T19:02:52.521Z" agent="Mozilla/5.0 (X11; Ubuntu; Linux x86_64; rv:125.0) Gecko/20100101 Firefox/125.0" etag="-3fbLRga8wDRihAQ2phZ" version="24.3.1" type="device">
  <diagram name="Page-1" id="9nXwGs9cTeg_glt61Sc_">
    <mxGraphModel dx="682" dy="383" grid="1" gridSize="10" guides="1" tooltips="1" connect="1" arrows="1" fold="1" page="1" pageScale="1" pageWidth="827" pageHeight="1169" math="0" shadow="0">
      <root>
        <mxCell id="0" />
        <mxCell id="1" parent="0" />
        <mxCell id="K5e5JTWMxoZmhN40_KnM-136" value="" style="endArrow=none;html=1;rounded=1;strokeWidth=4;strokeColor=#000099;startSize=2;exitX=0.5;exitY=0;exitDx=0;exitDy=0;" edge="1" parent="1" source="S5FKqw8-091Je8HFVhai-55">
          <mxGeometry width="50" height="50" relative="1" as="geometry">
            <mxPoint x="348" y="170" as="sourcePoint" />
            <mxPoint x="272" y="106" as="targetPoint" />
            <Array as="points">
              <mxPoint x="348" y="150" />
              <mxPoint x="272" y="140" />
            </Array>
          </mxGeometry>
        </mxCell>
        <mxCell id="K5e5JTWMxoZmhN40_KnM-78" value="" style="endArrow=none;html=1;rounded=1;strokeWidth=4;strokeColor=#24B064;exitX=0.5;exitY=1;exitDx=0;exitDy=0;entryX=0.5;entryY=0;entryDx=0;entryDy=0;" edge="1" parent="1" source="K5e5JTWMxoZmhN40_KnM-75" target="S5FKqw8-091Je8HFVhai-32">
          <mxGeometry width="50" height="50" relative="1" as="geometry">
            <mxPoint x="300" y="290" as="sourcePoint" />
            <mxPoint x="340" y="290" as="targetPoint" />
            <Array as="points">
              <mxPoint x="230" y="300" />
              <mxPoint x="270" y="330" />
            </Array>
          </mxGeometry>
        </mxCell>
        <mxCell id="K5e5JTWMxoZmhN40_KnM-52" value="" style="rounded=1;whiteSpace=wrap;html=1;strokeWidth=2;fillColor=#000000;" vertex="1" parent="1">
          <mxGeometry x="244" y="69.04761904761905" width="42.858947368421056" height="19.047619047619047" as="geometry" />
        </mxCell>
        <mxCell id="S5FKqw8-091Je8HFVhai-121" value="" style="endArrow=none;html=1;rounded=1;strokeWidth=4;strokeColor=#000099;exitX=0.5;exitY=1;exitDx=0;exitDy=0;" parent="1" source="K5e5JTWMxoZmhN40_KnM-46" edge="1">
          <mxGeometry width="50" height="50" relative="1" as="geometry">
            <mxPoint x="345.74" y="451" as="sourcePoint" />
            <mxPoint x="378" y="584" as="targetPoint" />
            <Array as="points">
              <mxPoint x="348" y="500" />
              <mxPoint x="378" y="500" />
            </Array>
          </mxGeometry>
        </mxCell>
        <mxCell id="S5FKqw8-091Je8HFVhai-114" value="" style="endArrow=none;html=1;rounded=1;strokeWidth=4;strokeColor=#24B064;entryX=0.5;entryY=0;entryDx=0;entryDy=0;exitX=0.5;exitY=1;exitDx=0;exitDy=0;" parent="1" source="S5FKqw8-091Je8HFVhai-56" target="S5FKqw8-091Je8HFVhai-80" edge="1">
          <mxGeometry width="50" height="50" relative="1" as="geometry">
            <mxPoint x="420" y="240" as="sourcePoint" />
            <mxPoint x="750" y="360" as="targetPoint" />
          </mxGeometry>
        </mxCell>
        <mxCell id="S5FKqw8-091Je8HFVhai-1" value="" style="group" parent="1" vertex="1" connectable="0">
          <mxGeometry x="244" y="50" width="45.24" height="50" as="geometry" />
        </mxCell>
        <mxCell id="S5FKqw8-091Je8HFVhai-2" value="" style="shape=note;whiteSpace=wrap;html=1;backgroundOutline=1;darkOpacity=0.05;rounded=1;size=20;strokeWidth=2;" parent="S5FKqw8-091Je8HFVhai-1" vertex="1">
          <mxGeometry x="2.3810526315789478" width="38.096842105263164" height="47.61904761904762" as="geometry" />
        </mxCell>
        <mxCell id="S5FKqw8-091Je8HFVhai-4" value="" style="shape=note;whiteSpace=wrap;html=1;backgroundOutline=1;darkOpacity=0.05;rounded=1;size=14;strokeWidth=2;" parent="S5FKqw8-091Je8HFVhai-1" vertex="1">
          <mxGeometry x="4.7621052631578955" y="2.380952380952381" width="38.096842105263164" height="47.61904761904762" as="geometry" />
        </mxCell>
        <mxCell id="S5FKqw8-091Je8HFVhai-5" value="&lt;font style=&quot;font-size: 12px;&quot; data-font-src=&quot;https://fonts.googleapis.com/css?family=Maven+Pro&quot; face=&quot;Maven Pro&quot; color=&quot;#ffffff&quot;&gt;&lt;b&gt;&lt;font style=&quot;font-size: 12px;&quot;&gt;Fasta&lt;/font&gt;&lt;/b&gt;&lt;/font&gt;" style="rounded=1;whiteSpace=wrap;html=1;strokeWidth=2;fillColor=#000000;" parent="S5FKqw8-091Je8HFVhai-1" vertex="1">
          <mxGeometry x="2.3810526315789478" y="21.428571428571427" width="42.858947368421056" height="19.047619047619047" as="geometry" />
        </mxCell>
        <mxCell id="S5FKqw8-091Je8HFVhai-33" value="" style="endArrow=none;html=1;rounded=1;strokeWidth=4;strokeColor=#24B064;exitX=0.5;exitY=1;exitDx=0;exitDy=0;entryX=0.5;entryY=0;entryDx=0;entryDy=0;" parent="1" source="K5e5JTWMxoZmhN40_KnM-76" target="S5FKqw8-091Je8HFVhai-32" edge="1">
          <mxGeometry width="50" height="50" relative="1" as="geometry">
            <mxPoint x="269.86" y="174.68" as="sourcePoint" />
            <mxPoint x="270" y="340" as="targetPoint" />
          </mxGeometry>
        </mxCell>
        <mxCell id="S5FKqw8-091Je8HFVhai-34" value="" style="endArrow=none;html=1;rounded=1;strokeWidth=4;strokeColor=#24B064;exitX=0.5;exitY=1;exitDx=0;exitDy=0;entryX=0.5;entryY=0;entryDx=0;entryDy=0;" parent="1" source="S5FKqw8-091Je8HFVhai-32" target="S5FKqw8-091Je8HFVhai-35" edge="1">
          <mxGeometry width="50" height="50" relative="1" as="geometry">
            <mxPoint x="297.48" y="540" as="sourcePoint" />
            <mxPoint x="266" y="550" as="targetPoint" />
          </mxGeometry>
        </mxCell>
        <mxCell id="S5FKqw8-091Je8HFVhai-37" value="" style="endArrow=none;html=1;rounded=1;strokeWidth=4;strokeColor=#24B064;exitX=0.5;exitY=1;exitDx=0;exitDy=0;entryX=0.5;entryY=0;entryDx=0;entryDy=0;" parent="1" source="S5FKqw8-091Je8HFVhai-35" target="S5FKqw8-091Je8HFVhai-36" edge="1">
          <mxGeometry width="50" height="50" relative="1" as="geometry">
            <mxPoint x="326" y="550" as="sourcePoint" />
            <mxPoint x="326" y="630" as="targetPoint" />
          </mxGeometry>
        </mxCell>
        <mxCell id="S5FKqw8-091Je8HFVhai-43" value="" style="endArrow=none;html=1;rounded=1;strokeWidth=4;strokeColor=#24B064;entryX=0.5;entryY=1;entryDx=0;entryDy=0;exitX=0.5;exitY=0;exitDx=0;exitDy=0;" parent="1" source="S5FKqw8-091Je8HFVhai-41" target="S5FKqw8-091Je8HFVhai-36" edge="1">
          <mxGeometry width="50" height="50" relative="1" as="geometry">
            <mxPoint x="356" y="680" as="sourcePoint" />
            <mxPoint x="286" y="670" as="targetPoint" />
          </mxGeometry>
        </mxCell>
        <mxCell id="S5FKqw8-091Je8HFVhai-44" value="" style="endArrow=none;html=1;rounded=1;strokeWidth=4;strokeColor=#24B064;entryX=0.5;entryY=1;entryDx=0;entryDy=0;exitX=0.5;exitY=0;exitDx=0;exitDy=0;" parent="1" source="S5FKqw8-091Je8HFVhai-42" target="S5FKqw8-091Je8HFVhai-41" edge="1">
          <mxGeometry width="50" height="50" relative="1" as="geometry">
            <mxPoint x="276" y="780" as="sourcePoint" />
            <mxPoint x="276" y="670" as="targetPoint" />
          </mxGeometry>
        </mxCell>
        <mxCell id="S5FKqw8-091Je8HFVhai-46" value="&lt;div&gt;&lt;b&gt;Build database&lt;/b&gt;&lt;/div&gt;&lt;div style=&quot;&quot;&gt;&lt;font color=&quot;#ff3333&quot;&gt;&lt;b&gt;diamond&lt;/b&gt;&lt;/font&gt;&lt;br&gt;&lt;/div&gt;" style="text;html=1;align=center;verticalAlign=middle;whiteSpace=wrap;rounded=0;" parent="1" vertex="1">
          <mxGeometry x="120" y="240.31" width="100" height="30" as="geometry" />
        </mxCell>
        <mxCell id="S5FKqw8-091Je8HFVhai-47" value="&lt;div&gt;&lt;b&gt;BLASTp&lt;/b&gt;&lt;/div&gt;&lt;div style=&quot;&quot;&gt;&lt;font color=&quot;#ff3333&quot; style=&quot;font-size: 12px;&quot;&gt;&lt;b&gt;diamond&lt;/b&gt;&lt;/font&gt;&lt;font color=&quot;#ff3333&quot; style=&quot;font-size: 12px;&quot;&gt;&lt;b&gt;&lt;br&gt;&lt;/b&gt;&lt;/font&gt;&lt;/div&gt;" style="text;html=1;align=center;verticalAlign=middle;whiteSpace=wrap;rounded=0;" parent="1" vertex="1">
          <mxGeometry x="190" y="350" width="80" height="30" as="geometry" />
        </mxCell>
        <mxCell id="S5FKqw8-091Je8HFVhai-48" value="&lt;div&gt;&lt;b&gt;Filtering alignment&lt;br&gt;&lt;/b&gt;&lt;/div&gt;&lt;div style=&quot;&quot;&gt;&lt;font color=&quot;#ff3333&quot;&gt;&lt;b&gt;Python&lt;/b&gt;&lt;br&gt;&lt;/font&gt;&lt;/div&gt;" style="text;html=1;align=center;verticalAlign=middle;whiteSpace=wrap;rounded=0;" parent="1" vertex="1">
          <mxGeometry x="139.86" y="425" width="120" height="30" as="geometry" />
        </mxCell>
        <mxCell id="S5FKqw8-091Je8HFVhai-49" value="&lt;div&gt;&lt;b&gt;Loadinf the network&lt;br&gt;&lt;/b&gt;&lt;/div&gt;&lt;div style=&quot;&quot;&gt;&lt;font color=&quot;#ff3333&quot;&gt;&lt;b&gt;mcl&lt;/b&gt;&lt;/font&gt;&lt;br&gt;&lt;/div&gt;" style="text;html=1;align=center;verticalAlign=middle;whiteSpace=wrap;rounded=0;" parent="1" vertex="1">
          <mxGeometry x="139.05" y="505" width="120" height="30" as="geometry" />
        </mxCell>
        <mxCell id="S5FKqw8-091Je8HFVhai-50" value="&lt;div&gt;&lt;b&gt;Markov CLustering algorithm&lt;br&gt;&lt;/b&gt;&lt;/div&gt;&lt;div style=&quot;&quot;&gt;&lt;font color=&quot;#ff3333&quot; style=&quot;font-size: 12px;&quot;&gt;&lt;b&gt;mcl&lt;/b&gt;&lt;/font&gt;&lt;br&gt;&lt;/div&gt;" style="text;html=1;align=center;verticalAlign=middle;whiteSpace=wrap;rounded=0;" parent="1" vertex="1">
          <mxGeometry x="80" y="572.5" width="180" height="45" as="geometry" />
        </mxCell>
        <mxCell id="S5FKqw8-091Je8HFVhai-53" value="&lt;div&gt;&lt;b&gt;Clustering file&lt;br&gt;&lt;/b&gt;&lt;/div&gt;&lt;div style=&quot;&quot;&gt;&lt;font color=&quot;#ff3333&quot;&gt;&lt;b&gt;mcl&lt;/b&gt;&lt;/font&gt;&lt;br&gt;&lt;/div&gt;" style="text;html=1;align=center;verticalAlign=middle;whiteSpace=wrap;rounded=0;" parent="1" vertex="1">
          <mxGeometry x="169.05" y="665" width="90" height="30" as="geometry" />
        </mxCell>
        <mxCell id="S5FKqw8-091Je8HFVhai-54" value="&lt;div&gt;&lt;b&gt;Convert dump file to TSV&lt;br&gt;&lt;/b&gt;&lt;/div&gt;&lt;div style=&quot;&quot;&gt;&lt;font color=&quot;#ff3333&quot;&gt;&lt;b&gt;Awk&lt;/b&gt;&lt;b&gt;&lt;br&gt;&lt;/b&gt;&lt;/font&gt;&lt;/div&gt;" style="text;html=1;align=center;verticalAlign=middle;whiteSpace=wrap;rounded=0;" parent="1" vertex="1">
          <mxGeometry x="110.00000000000001" y="745" width="150" height="30" as="geometry" />
        </mxCell>
        <mxCell id="S5FKqw8-091Je8HFVhai-59" value="" style="endArrow=none;html=1;rounded=1;strokeWidth=4;strokeColor=#000099;entryX=0.5;entryY=0;entryDx=0;entryDy=0;exitX=0;exitY=0.5;exitDx=0;exitDy=0;exitPerimeter=0;" parent="1" target="S5FKqw8-091Je8HFVhai-55" edge="1" source="K5e5JTWMxoZmhN40_KnM-130">
          <mxGeometry width="50" height="50" relative="1" as="geometry">
            <mxPoint x="348.53" y="110" as="sourcePoint" />
            <mxPoint x="350" y="170" as="targetPoint" />
          </mxGeometry>
        </mxCell>
        <mxCell id="S5FKqw8-091Je8HFVhai-61" value="&lt;div&gt;&lt;b&gt;Selecting information in files&lt;br&gt;&lt;/b&gt;&lt;/div&gt;&lt;div style=&quot;&quot;&gt;&lt;font color=&quot;#ff3333&quot;&gt;&lt;b&gt;Awk - Sed&lt;/b&gt;&lt;/font&gt;&lt;br&gt;&lt;/div&gt;" style="text;html=1;align=center;verticalAlign=middle;whiteSpace=wrap;rounded=0;" parent="1" vertex="1">
          <mxGeometry x="420" y="195" width="170" height="30" as="geometry" />
        </mxCell>
        <mxCell id="S5FKqw8-091Je8HFVhai-78" value="&lt;div&gt;&lt;b&gt;collectFile&lt;br&gt;&lt;/b&gt;&lt;/div&gt;" style="text;html=1;align=center;verticalAlign=middle;whiteSpace=wrap;rounded=0;" parent="1" vertex="1">
          <mxGeometry x="420" y="295" width="70" height="30" as="geometry" />
        </mxCell>
        <mxCell id="S5FKqw8-091Je8HFVhai-113" value="" style="endArrow=none;html=1;rounded=1;strokeWidth=4;strokeColor=#000099;entryX=0.5;entryY=0;entryDx=0;entryDy=0;exitX=0.5;exitY=1;exitDx=0;exitDy=0;" parent="1" source="S5FKqw8-091Je8HFVhai-55" target="S5FKqw8-091Je8HFVhai-77" edge="1">
          <mxGeometry width="50" height="50" relative="1" as="geometry">
            <mxPoint x="348" y="240" as="sourcePoint" />
            <mxPoint x="446" y="360" as="targetPoint" />
          </mxGeometry>
        </mxCell>
        <mxCell id="S5FKqw8-091Je8HFVhai-115" value="" style="endArrow=none;html=1;rounded=1;strokeWidth=4;strokeColor=#000099;exitX=0.5;exitY=1;exitDx=0;exitDy=0;entryX=0.5;entryY=0;entryDx=0;entryDy=0;" parent="1" source="S5FKqw8-091Je8HFVhai-77" target="K5e5JTWMxoZmhN40_KnM-46" edge="1">
          <mxGeometry width="50" height="50" relative="1" as="geometry">
            <mxPoint x="436" y="320" as="sourcePoint" />
            <mxPoint x="350" y="400" as="targetPoint" />
          </mxGeometry>
        </mxCell>
        <mxCell id="S5FKqw8-091Je8HFVhai-111" value="" style="group" parent="1" vertex="1" connectable="0">
          <mxGeometry x="337.74" y="300" width="30" height="20" as="geometry" />
        </mxCell>
        <mxCell id="S5FKqw8-091Je8HFVhai-77" value="" style="rounded=1;whiteSpace=wrap;html=1;strokeWidth=4;arcSize=0;" parent="S5FKqw8-091Je8HFVhai-111" vertex="1">
          <mxGeometry width="20" height="20" as="geometry" />
        </mxCell>
        <mxCell id="S5FKqw8-091Je8HFVhai-117" value="" style="endArrow=none;html=1;rounded=1;strokeWidth=4;strokeColor=#24B064;entryX=0.5;entryY=0;entryDx=0;entryDy=0;exitX=0.5;exitY=1;exitDx=0;exitDy=0;" parent="1" source="S5FKqw8-091Je8HFVhai-80" target="K5e5JTWMxoZmhN40_KnM-45" edge="1">
          <mxGeometry width="50" height="50" relative="1" as="geometry">
            <mxPoint x="758.24" y="370" as="sourcePoint" />
            <mxPoint x="604" y="430" as="targetPoint" />
          </mxGeometry>
        </mxCell>
        <mxCell id="S5FKqw8-091Je8HFVhai-126" value="&lt;div&gt;&lt;b&gt;concat&lt;br&gt;&lt;/b&gt;&lt;/div&gt;" style="text;html=1;align=center;verticalAlign=middle;whiteSpace=wrap;rounded=0;" parent="1" vertex="1">
          <mxGeometry x="390.24" y="670" width="50" height="30" as="geometry" />
        </mxCell>
        <mxCell id="S5FKqw8-091Je8HFVhai-135" value="&lt;div&gt;&lt;b&gt;collect&lt;br&gt;&lt;/b&gt;&lt;/div&gt;" style="text;html=1;align=center;verticalAlign=middle;whiteSpace=wrap;rounded=0;" parent="1" vertex="1">
          <mxGeometry x="390.43" y="580" width="50.19" height="30" as="geometry" />
        </mxCell>
        <mxCell id="S5FKqw8-091Je8HFVhai-136" value="" style="endArrow=none;html=1;rounded=1;strokeWidth=4;strokeColor=#24B064;exitX=0.5;exitY=1;exitDx=0;exitDy=0;" parent="1" source="K5e5JTWMxoZmhN40_KnM-45" edge="1">
          <mxGeometry width="50" height="50" relative="1" as="geometry">
            <mxPoint x="410" y="470" as="sourcePoint" />
            <mxPoint x="382" y="583" as="targetPoint" />
            <Array as="points">
              <mxPoint x="410" y="500" />
              <mxPoint x="382" y="500" />
            </Array>
          </mxGeometry>
        </mxCell>
        <mxCell id="S5FKqw8-091Je8HFVhai-137" value="" style="endArrow=none;html=1;rounded=1;strokeWidth=4;strokeColor=#24B064;entryX=0.5;entryY=0;entryDx=0;entryDy=0;exitX=0;exitY=0.5;exitDx=0;exitDy=0;exitPerimeter=0;" parent="1" target="S5FKqw8-091Je8HFVhai-56" edge="1" source="K5e5JTWMxoZmhN40_KnM-132">
          <mxGeometry width="50" height="50" relative="1" as="geometry">
            <mxPoint x="410" y="110" as="sourcePoint" />
            <mxPoint x="420" y="170" as="targetPoint" />
          </mxGeometry>
        </mxCell>
        <mxCell id="S5FKqw8-091Je8HFVhai-41" value="" style="ellipse;whiteSpace=wrap;html=1;aspect=fixed;rounded=1;rotation=0;strokeWidth=4;" parent="1" vertex="1">
          <mxGeometry x="259.86" y="585" width="20" height="20" as="geometry" />
        </mxCell>
        <mxCell id="S5FKqw8-091Je8HFVhai-36" value="" style="ellipse;whiteSpace=wrap;html=1;aspect=fixed;rounded=1;rotation=0;strokeWidth=4;" parent="1" vertex="1">
          <mxGeometry x="259.86" y="510" width="20" height="20" as="geometry" />
        </mxCell>
        <mxCell id="S5FKqw8-091Je8HFVhai-35" value="" style="ellipse;whiteSpace=wrap;html=1;aspect=fixed;rounded=1;rotation=0;strokeWidth=4;" parent="1" vertex="1">
          <mxGeometry x="259.86" y="430" width="20" height="20" as="geometry" />
        </mxCell>
        <mxCell id="S5FKqw8-091Je8HFVhai-80" value="" style="rounded=1;whiteSpace=wrap;html=1;strokeWidth=4;arcSize=0;" parent="1" vertex="1">
          <mxGeometry x="400" y="300" width="20" height="20" as="geometry" />
        </mxCell>
        <mxCell id="S5FKqw8-091Je8HFVhai-56" value="" style="ellipse;whiteSpace=wrap;html=1;aspect=fixed;rounded=1;rotation=0;strokeWidth=4;" parent="1" vertex="1">
          <mxGeometry x="400" y="200" width="20" height="20" as="geometry" />
        </mxCell>
        <mxCell id="S5FKqw8-091Je8HFVhai-55" value="" style="ellipse;whiteSpace=wrap;html=1;aspect=fixed;rounded=1;rotation=0;strokeWidth=4;" parent="1" vertex="1">
          <mxGeometry x="337.74" y="200" width="20" height="20" as="geometry" />
        </mxCell>
        <mxCell id="S5FKqw8-091Je8HFVhai-150" value="" style="endArrow=none;html=1;rounded=1;strokeWidth=4;strokeColor=#24B064;exitX=0.5;exitY=1;exitDx=0;exitDy=0;entryX=0.5;entryY=0;entryDx=0;entryDy=0;" parent="1" source="S5FKqw8-091Je8HFVhai-119" target="S5FKqw8-091Je8HFVhai-128" edge="1">
          <mxGeometry width="50" height="50" relative="1" as="geometry">
            <mxPoint x="588" y="650" as="sourcePoint" />
            <mxPoint x="380" y="680" as="targetPoint" />
          </mxGeometry>
        </mxCell>
        <mxCell id="S5FKqw8-091Je8HFVhai-119" value="" style="rounded=1;whiteSpace=wrap;html=1;strokeWidth=4;arcSize=0;" parent="1" vertex="1">
          <mxGeometry x="370.24" y="585" width="20" height="20" as="geometry" />
        </mxCell>
        <mxCell id="S5FKqw8-091Je8HFVhai-169" value="&lt;div&gt;&lt;b&gt;collectFile&lt;br&gt;&lt;/b&gt;&lt;/div&gt;" style="text;html=1;align=center;verticalAlign=middle;whiteSpace=wrap;rounded=0;" parent="1" vertex="1">
          <mxGeometry x="180.67" y="144.68" width="78.38" height="30" as="geometry" />
        </mxCell>
        <mxCell id="S5FKqw8-091Je8HFVhai-177" value="" style="endArrow=none;html=1;rounded=1;strokeWidth=4;strokeColor=#24B064;entryX=0.5;entryY=1;entryDx=0;entryDy=0;exitX=0.5;exitY=0;exitDx=0;exitDy=0;" parent="1" source="S5FKqw8-091Je8HFVhai-154" target="S5FKqw8-091Je8HFVhai-42" edge="1">
          <mxGeometry width="50" height="50" relative="1" as="geometry">
            <mxPoint x="270.6" y="860" as="sourcePoint" />
            <mxPoint x="270.6" y="790" as="targetPoint" />
          </mxGeometry>
        </mxCell>
        <mxCell id="S5FKqw8-091Je8HFVhai-42" value="" style="ellipse;whiteSpace=wrap;html=1;aspect=fixed;rounded=1;rotation=0;strokeWidth=4;" parent="1" vertex="1">
          <mxGeometry x="259.86" y="670" width="20" height="20" as="geometry" />
        </mxCell>
        <mxCell id="S5FKqw8-091Je8HFVhai-184" value="" style="endArrow=none;html=1;rounded=1;strokeWidth=4;strokeColor=#24B064;entryX=0.5;entryY=1;entryDx=0;entryDy=0;exitX=0.5;exitY=0;exitDx=0;exitDy=0;" parent="1" source="S5FKqw8-091Je8HFVhai-182" target="S5FKqw8-091Je8HFVhai-154" edge="1">
          <mxGeometry width="50" height="50" relative="1" as="geometry">
            <mxPoint x="310" y="830" as="sourcePoint" />
            <mxPoint x="271" y="800" as="targetPoint" />
            <Array as="points">
              <mxPoint x="330" y="810" />
              <mxPoint x="270" y="810" />
            </Array>
          </mxGeometry>
        </mxCell>
        <mxCell id="S5FKqw8-091Je8HFVhai-186" value="&lt;div&gt;&lt;b&gt;Homogeneity score&lt;br&gt;&lt;/b&gt;&lt;/div&gt;&lt;div style=&quot;&quot;&gt;&lt;font color=&quot;#ff3333&quot;&gt;&lt;b&gt;Python&lt;/b&gt;&lt;b&gt;&lt;br&gt;&lt;/b&gt;&lt;/font&gt;&lt;/div&gt;" style="text;html=1;align=center;verticalAlign=middle;whiteSpace=wrap;rounded=0;" parent="1" vertex="1">
          <mxGeometry x="340.38" y="840" width="120.24" height="30" as="geometry" />
        </mxCell>
        <mxCell id="S5FKqw8-091Je8HFVhai-191" value="" style="endArrow=none;html=1;rounded=1;strokeWidth=4;strokeColor=#24B064;entryX=0.5;entryY=0;entryDx=0;entryDy=0;exitX=0.5;exitY=1;exitDx=0;exitDy=0;" parent="1" source="S5FKqw8-091Je8HFVhai-182" target="S5FKqw8-091Je8HFVhai-190" edge="1">
          <mxGeometry width="50" height="50" relative="1" as="geometry">
            <mxPoint x="446.18" y="930" as="sourcePoint" />
            <mxPoint x="446.18" y="1042" as="targetPoint" />
            <Array as="points">
              <mxPoint x="330" y="900" />
              <mxPoint x="400" y="900" />
            </Array>
          </mxGeometry>
        </mxCell>
        <mxCell id="K5e5JTWMxoZmhN40_KnM-26" value="" style="endArrow=none;html=1;rounded=1;strokeWidth=4;exitX=1;exitY=0;exitDx=0;exitDy=0;entryX=0;entryY=0;entryDx=0;entryDy=0;" edge="1" parent="1" source="S5FKqw8-091Je8HFVhai-55" target="S5FKqw8-091Je8HFVhai-56">
          <mxGeometry width="50" height="50" relative="1" as="geometry">
            <mxPoint x="359" y="195" as="sourcePoint" />
            <mxPoint x="399" y="195" as="targetPoint" />
          </mxGeometry>
        </mxCell>
        <mxCell id="K5e5JTWMxoZmhN40_KnM-27" value="" style="endArrow=none;html=1;rounded=1;strokeWidth=4;exitX=1;exitY=1;exitDx=0;exitDy=0;entryX=0;entryY=1;entryDx=0;entryDy=0;" edge="1" parent="1" source="S5FKqw8-091Je8HFVhai-55" target="S5FKqw8-091Je8HFVhai-56">
          <mxGeometry width="50" height="50" relative="1" as="geometry">
            <mxPoint x="359" y="225" as="sourcePoint" />
            <mxPoint x="399" y="225" as="targetPoint" />
          </mxGeometry>
        </mxCell>
        <mxCell id="K5e5JTWMxoZmhN40_KnM-29" value="" style="endArrow=none;html=1;rounded=1;strokeWidth=4;exitX=1;exitY=0.75;exitDx=0;exitDy=0;entryX=0;entryY=0.75;entryDx=0;entryDy=0;" edge="1" parent="1" source="S5FKqw8-091Je8HFVhai-77" target="S5FKqw8-091Je8HFVhai-80">
          <mxGeometry width="50" height="50" relative="1" as="geometry">
            <mxPoint x="430" y="270" as="sourcePoint" />
            <mxPoint x="470" y="270" as="targetPoint" />
          </mxGeometry>
        </mxCell>
        <mxCell id="K5e5JTWMxoZmhN40_KnM-32" value="" style="endArrow=none;html=1;rounded=1;strokeWidth=2;strokeColor=#FFFFFF;" edge="1" parent="1">
          <mxGeometry width="50" height="50" relative="1" as="geometry">
            <mxPoint x="375" y="308" as="sourcePoint" />
            <mxPoint x="411" y="307.99" as="targetPoint" />
          </mxGeometry>
        </mxCell>
        <mxCell id="K5e5JTWMxoZmhN40_KnM-28" value="" style="endArrow=none;html=1;rounded=1;strokeWidth=4;entryX=0;entryY=0.25;entryDx=0;entryDy=0;exitX=1;exitY=0.25;exitDx=0;exitDy=0;" edge="1" parent="1" source="S5FKqw8-091Je8HFVhai-77" target="S5FKqw8-091Je8HFVhai-80">
          <mxGeometry width="50" height="50" relative="1" as="geometry">
            <mxPoint x="359" y="299.78" as="sourcePoint" />
            <mxPoint x="399" y="299.78" as="targetPoint" />
          </mxGeometry>
        </mxCell>
        <mxCell id="K5e5JTWMxoZmhN40_KnM-35" value="" style="endArrow=none;html=1;rounded=1;strokeWidth=2;strokeColor=#FFFFFF;" edge="1" parent="1">
          <mxGeometry width="50" height="50" relative="1" as="geometry">
            <mxPoint x="377" y="310" as="sourcePoint" />
            <mxPoint x="413" y="309.99" as="targetPoint" />
          </mxGeometry>
        </mxCell>
        <mxCell id="K5e5JTWMxoZmhN40_KnM-36" value="" style="endArrow=none;html=1;rounded=1;strokeWidth=2;strokeColor=#FFFFFF;" edge="1" parent="1">
          <mxGeometry width="50" height="50" relative="1" as="geometry">
            <mxPoint x="375" y="312" as="sourcePoint" />
            <mxPoint x="411" y="311.99" as="targetPoint" />
          </mxGeometry>
        </mxCell>
        <mxCell id="K5e5JTWMxoZmhN40_KnM-37" value="" style="endArrow=none;html=1;rounded=1;strokeWidth=2;strokeColor=#FFFFFF;" edge="1" parent="1">
          <mxGeometry width="50" height="50" relative="1" as="geometry">
            <mxPoint x="354" y="312" as="sourcePoint" />
            <mxPoint x="390" y="311.99" as="targetPoint" />
          </mxGeometry>
        </mxCell>
        <mxCell id="K5e5JTWMxoZmhN40_KnM-38" value="" style="endArrow=none;html=1;rounded=1;strokeWidth=2;strokeColor=#FFFFFF;" edge="1" parent="1">
          <mxGeometry width="50" height="50" relative="1" as="geometry">
            <mxPoint x="354" y="308" as="sourcePoint" />
            <mxPoint x="390" y="307.99" as="targetPoint" />
          </mxGeometry>
        </mxCell>
        <mxCell id="K5e5JTWMxoZmhN40_KnM-39" value="" style="endArrow=none;html=1;rounded=1;strokeWidth=2;strokeColor=#FFFFFF;" edge="1" parent="1">
          <mxGeometry width="50" height="50" relative="1" as="geometry">
            <mxPoint x="353" y="309" as="sourcePoint" />
            <mxPoint x="389" y="308.99" as="targetPoint" />
          </mxGeometry>
        </mxCell>
        <mxCell id="K5e5JTWMxoZmhN40_KnM-40" value="" style="endArrow=none;html=1;rounded=1;strokeWidth=2;strokeColor=#FFFFFF;" edge="1" parent="1">
          <mxGeometry width="50" height="50" relative="1" as="geometry">
            <mxPoint x="353" y="311" as="sourcePoint" />
            <mxPoint x="389" y="310.99" as="targetPoint" />
          </mxGeometry>
        </mxCell>
        <mxCell id="K5e5JTWMxoZmhN40_KnM-41" value="" style="endArrow=none;html=1;rounded=1;strokeWidth=2;strokeColor=#FFFFFF;" edge="1" parent="1">
          <mxGeometry width="50" height="50" relative="1" as="geometry">
            <mxPoint x="377" y="311" as="sourcePoint" />
            <mxPoint x="413" y="310.99" as="targetPoint" />
          </mxGeometry>
        </mxCell>
        <mxCell id="K5e5JTWMxoZmhN40_KnM-42" value="" style="endArrow=none;html=1;rounded=1;strokeWidth=2;strokeColor=#FFFFFF;" edge="1" parent="1">
          <mxGeometry width="50" height="50" relative="1" as="geometry">
            <mxPoint x="348" y="310" as="sourcePoint" />
            <mxPoint x="384" y="309.99" as="targetPoint" />
          </mxGeometry>
        </mxCell>
        <mxCell id="K5e5JTWMxoZmhN40_KnM-43" value="" style="endArrow=none;html=1;rounded=1;strokeWidth=2;strokeColor=#FFFFFF;" edge="1" parent="1">
          <mxGeometry width="50" height="50" relative="1" as="geometry">
            <mxPoint x="373" y="309" as="sourcePoint" />
            <mxPoint x="409" y="308.99" as="targetPoint" />
          </mxGeometry>
        </mxCell>
        <mxCell id="K5e5JTWMxoZmhN40_KnM-45" value="" style="ellipse;whiteSpace=wrap;html=1;aspect=fixed;rounded=1;rotation=0;strokeWidth=4;" vertex="1" parent="1">
          <mxGeometry x="400" y="431" width="20" height="20" as="geometry" />
        </mxCell>
        <mxCell id="K5e5JTWMxoZmhN40_KnM-46" value="" style="ellipse;whiteSpace=wrap;html=1;aspect=fixed;rounded=1;rotation=0;strokeWidth=4;" vertex="1" parent="1">
          <mxGeometry x="337.74" y="431" width="20" height="20" as="geometry" />
        </mxCell>
        <mxCell id="K5e5JTWMxoZmhN40_KnM-47" value="" style="rounded=0;whiteSpace=wrap;html=1;strokeWidth=0;rotation=90;strokeColor=#FFFFFF;" vertex="1" parent="1">
          <mxGeometry x="372.74" y="405.69" width="10" height="70.63" as="geometry" />
        </mxCell>
        <mxCell id="K5e5JTWMxoZmhN40_KnM-48" value="" style="endArrow=none;html=1;rounded=1;strokeWidth=4;exitX=1;exitY=0;exitDx=0;exitDy=0;entryX=0;entryY=0;entryDx=0;entryDy=0;" edge="1" parent="1" source="K5e5JTWMxoZmhN40_KnM-46" target="K5e5JTWMxoZmhN40_KnM-45">
          <mxGeometry width="50" height="50" relative="1" as="geometry">
            <mxPoint x="359" y="426" as="sourcePoint" />
            <mxPoint x="390" y="430" as="targetPoint" />
          </mxGeometry>
        </mxCell>
        <mxCell id="K5e5JTWMxoZmhN40_KnM-49" value="" style="endArrow=none;html=1;rounded=1;strokeWidth=4;exitX=1;exitY=1;exitDx=0;exitDy=0;entryX=0;entryY=1;entryDx=0;entryDy=0;" edge="1" parent="1" source="K5e5JTWMxoZmhN40_KnM-46" target="K5e5JTWMxoZmhN40_KnM-45">
          <mxGeometry width="50" height="50" relative="1" as="geometry">
            <mxPoint x="359" y="456" as="sourcePoint" />
            <mxPoint x="390" y="450" as="targetPoint" />
          </mxGeometry>
        </mxCell>
        <mxCell id="K5e5JTWMxoZmhN40_KnM-53" value="" style="rounded=1;whiteSpace=wrap;html=1;strokeWidth=2;fillColor=#000000;" vertex="1" parent="1">
          <mxGeometry x="387" y="69.04761904761905" width="42.858947368421056" height="19.047619047619047" as="geometry" />
        </mxCell>
        <mxCell id="K5e5JTWMxoZmhN40_KnM-54" value="" style="group" vertex="1" connectable="0" parent="1">
          <mxGeometry x="387" y="50" width="45.24" height="50" as="geometry" />
        </mxCell>
        <mxCell id="K5e5JTWMxoZmhN40_KnM-55" value="" style="shape=note;whiteSpace=wrap;html=1;backgroundOutline=1;darkOpacity=0.05;rounded=1;size=20;strokeWidth=2;" vertex="1" parent="K5e5JTWMxoZmhN40_KnM-54">
          <mxGeometry x="2.3810526315789478" width="38.096842105263164" height="47.61904761904762" as="geometry" />
        </mxCell>
        <mxCell id="K5e5JTWMxoZmhN40_KnM-56" value="" style="shape=note;whiteSpace=wrap;html=1;backgroundOutline=1;darkOpacity=0.05;rounded=1;size=14;strokeWidth=2;" vertex="1" parent="K5e5JTWMxoZmhN40_KnM-54">
          <mxGeometry x="4.7621052631578955" y="2.380952380952381" width="38.096842105263164" height="47.61904761904762" as="geometry" />
        </mxCell>
        <mxCell id="K5e5JTWMxoZmhN40_KnM-57" value="&lt;font color=&quot;#ffffff&quot; face=&quot;Maven Pro&quot;&gt;&lt;b&gt;TSV&lt;/b&gt;&lt;/font&gt;" style="rounded=1;whiteSpace=wrap;html=1;strokeWidth=2;fillColor=#000000;" vertex="1" parent="K5e5JTWMxoZmhN40_KnM-54">
          <mxGeometry x="2.3810526315789478" y="21.428571428571427" width="42.858947368421056" height="19.047619047619047" as="geometry" />
        </mxCell>
        <mxCell id="K5e5JTWMxoZmhN40_KnM-74" value="" style="endArrow=none;html=1;rounded=1;strokeWidth=4;strokeColor=#24B064;entryX=0.5;entryY=1;entryDx=0;entryDy=0;exitX=0.5;exitY=0;exitDx=0;exitDy=0;" edge="1" parent="1" source="S5FKqw8-091Je8HFVhai-182" target="S5FKqw8-091Je8HFVhai-128">
          <mxGeometry width="50" height="50" relative="1" as="geometry">
            <mxPoint x="340" y="830" as="sourcePoint" />
            <mxPoint x="380" y="700" as="targetPoint" />
            <Array as="points">
              <mxPoint x="330" y="810" />
              <mxPoint x="380" y="810" />
            </Array>
          </mxGeometry>
        </mxCell>
        <mxCell id="S5FKqw8-091Je8HFVhai-128" value="" style="rounded=1;whiteSpace=wrap;html=1;strokeWidth=4;arcSize=0;" parent="1" vertex="1">
          <mxGeometry x="370.24" y="675" width="20" height="20" as="geometry" />
        </mxCell>
        <mxCell id="K5e5JTWMxoZmhN40_KnM-77" value="" style="endArrow=none;html=1;rounded=1;strokeWidth=4;strokeColor=#24B064;entryX=0.5;entryY=0;entryDx=0;entryDy=0;exitX=0.5;exitY=1;exitDx=0;exitDy=0;" edge="1" parent="1" source="K5e5JTWMxoZmhN40_KnM-76" target="K5e5JTWMxoZmhN40_KnM-75">
          <mxGeometry width="50" height="50" relative="1" as="geometry">
            <mxPoint x="219" y="210" as="sourcePoint" />
            <mxPoint x="220" y="230" as="targetPoint" />
            <Array as="points">
              <mxPoint x="270" y="190" />
              <mxPoint x="230" y="210" />
            </Array>
          </mxGeometry>
        </mxCell>
        <mxCell id="K5e5JTWMxoZmhN40_KnM-75" value="" style="ellipse;whiteSpace=wrap;html=1;aspect=fixed;rounded=1;rotation=0;strokeWidth=4;" vertex="1" parent="1">
          <mxGeometry x="220" y="245.31" width="20" height="20" as="geometry" />
        </mxCell>
        <mxCell id="S5FKqw8-091Je8HFVhai-32" value="" style="ellipse;whiteSpace=wrap;html=1;aspect=fixed;rounded=1;rotation=0;strokeWidth=4;" parent="1" vertex="1">
          <mxGeometry x="259.86" y="355" width="20" height="20" as="geometry" />
        </mxCell>
        <mxCell id="K5e5JTWMxoZmhN40_KnM-79" value="&lt;div&gt;&lt;b&gt;Label preparation&lt;/b&gt;&lt;/div&gt;&lt;div&gt;&lt;b&gt;1 file = 1 label&lt;br&gt;&lt;/b&gt;&lt;/div&gt;&lt;div style=&quot;&quot;&gt;&lt;font color=&quot;#ff3333&quot;&gt;&lt;b&gt;Python&lt;/b&gt;&lt;/font&gt;&lt;br&gt;&lt;/div&gt;" style="text;html=1;align=center;verticalAlign=middle;whiteSpace=wrap;rounded=0;" vertex="1" parent="1">
          <mxGeometry x="420" y="425" width="120" height="49" as="geometry" />
        </mxCell>
        <mxCell id="K5e5JTWMxoZmhN40_KnM-80" value="" style="shape=note;whiteSpace=wrap;html=1;backgroundOutline=1;darkOpacity=0.05;rounded=1;size=14;strokeWidth=2;" vertex="1" parent="1">
          <mxGeometry x="329.7621052631579" y="52.38095238095238" width="38.096842105263164" height="47.61904761904762" as="geometry" />
        </mxCell>
        <mxCell id="K5e5JTWMxoZmhN40_KnM-81" value="&lt;font color=&quot;#ffffff&quot; face=&quot;Maven Pro&quot;&gt;&lt;b&gt;TSV&lt;/b&gt;&lt;/font&gt;" style="rounded=1;whiteSpace=wrap;html=1;strokeWidth=2;fillColor=#000000;" vertex="1" parent="1">
          <mxGeometry x="327.38105263157894" y="71.42857142857143" width="42.858947368421056" height="19.047619047619047" as="geometry" />
        </mxCell>
        <mxCell id="K5e5JTWMxoZmhN40_KnM-86" value="&lt;div&gt;&lt;b&gt;Generating plot&lt;br&gt;&lt;/b&gt;&lt;/div&gt;&lt;div style=&quot;&quot;&gt;&lt;font color=&quot;#ff3333&quot;&gt;&lt;b&gt;R&lt;/b&gt;&lt;b&gt;&lt;br&gt;&lt;/b&gt;&lt;/font&gt;&lt;/div&gt;" style="text;html=1;align=center;verticalAlign=middle;whiteSpace=wrap;rounded=0;" vertex="1" parent="1">
          <mxGeometry x="80" y="875" width="120.24" height="30" as="geometry" />
        </mxCell>
        <mxCell id="K5e5JTWMxoZmhN40_KnM-87" value="&lt;div&gt;&lt;b&gt;Generating plot&lt;br&gt;&lt;/b&gt;&lt;/div&gt;&lt;div style=&quot;&quot;&gt;&lt;font color=&quot;#ff3333&quot;&gt;&lt;b&gt;R&lt;/b&gt;&lt;b&gt;&lt;br&gt;&lt;/b&gt;&lt;/font&gt;&lt;/div&gt;" style="text;html=1;align=center;verticalAlign=middle;whiteSpace=wrap;rounded=0;" vertex="1" parent="1">
          <mxGeometry x="410.24" y="925" width="100" height="30" as="geometry" />
        </mxCell>
        <mxCell id="K5e5JTWMxoZmhN40_KnM-89" value="" style="endArrow=none;html=1;rounded=1;strokeWidth=4;strokeColor=#24B064;entryX=0.5;entryY=1;entryDx=0;entryDy=0;exitX=0.5;exitY=0;exitDx=0;exitDy=0;" edge="1" parent="1" source="S5FKqw8-091Je8HFVhai-188" target="S5FKqw8-091Je8HFVhai-154">
          <mxGeometry width="50" height="50" relative="1" as="geometry">
            <mxPoint x="230" y="840" as="sourcePoint" />
            <mxPoint x="234.05" y="820" as="targetPoint" />
            <Array as="points">
              <mxPoint x="200" y="810" />
              <mxPoint x="270" y="810" />
            </Array>
          </mxGeometry>
        </mxCell>
        <mxCell id="K5e5JTWMxoZmhN40_KnM-90" value="" style="endArrow=none;html=1;rounded=1;strokeWidth=4;strokeColor=#24B064;exitX=0.5;exitY=1;exitDx=0;exitDy=0;" edge="1" parent="1" source="S5FKqw8-091Je8HFVhai-154">
          <mxGeometry width="50" height="50" relative="1" as="geometry">
            <mxPoint x="270" y="870" as="sourcePoint" />
            <mxPoint x="270" y="980" as="targetPoint" />
          </mxGeometry>
        </mxCell>
        <mxCell id="S5FKqw8-091Je8HFVhai-154" value="" style="ellipse;whiteSpace=wrap;html=1;aspect=fixed;rounded=1;rotation=0;strokeWidth=4;" parent="1" vertex="1">
          <mxGeometry x="259.86" y="750" width="20" height="20" as="geometry" />
        </mxCell>
        <mxCell id="K5e5JTWMxoZmhN40_KnM-101" value="" style="group" vertex="1" connectable="0" parent="1">
          <mxGeometry x="250" y="990" width="45.24000000000001" height="50" as="geometry" />
        </mxCell>
        <mxCell id="K5e5JTWMxoZmhN40_KnM-96" value="" style="rounded=1;whiteSpace=wrap;html=1;strokeWidth=2;fillColor=#000000;" vertex="1" parent="K5e5JTWMxoZmhN40_KnM-101">
          <mxGeometry y="19.04761904761905" width="42.858947368421056" height="19.047619047619047" as="geometry" />
        </mxCell>
        <mxCell id="K5e5JTWMxoZmhN40_KnM-97" value="" style="group" vertex="1" connectable="0" parent="K5e5JTWMxoZmhN40_KnM-101">
          <mxGeometry width="45.24" height="50" as="geometry" />
        </mxCell>
        <mxCell id="K5e5JTWMxoZmhN40_KnM-98" value="" style="shape=note;whiteSpace=wrap;html=1;backgroundOutline=1;darkOpacity=0.05;rounded=1;size=20;strokeWidth=2;" vertex="1" parent="K5e5JTWMxoZmhN40_KnM-97">
          <mxGeometry x="2.3810526315789478" width="38.096842105263164" height="47.61904761904762" as="geometry" />
        </mxCell>
        <mxCell id="K5e5JTWMxoZmhN40_KnM-99" value="" style="shape=note;whiteSpace=wrap;html=1;backgroundOutline=1;darkOpacity=0.05;rounded=1;size=14;strokeWidth=2;" vertex="1" parent="K5e5JTWMxoZmhN40_KnM-97">
          <mxGeometry x="4.7621052631578955" y="2.380952380952381" width="38.096842105263164" height="47.61904761904762" as="geometry" />
        </mxCell>
        <mxCell id="K5e5JTWMxoZmhN40_KnM-100" value="&lt;font color=&quot;#ffffff&quot; face=&quot;Maven Pro&quot;&gt;&lt;b&gt;TSV&lt;/b&gt;&lt;/font&gt;" style="rounded=1;whiteSpace=wrap;html=1;strokeWidth=2;fillColor=#000000;" vertex="1" parent="K5e5JTWMxoZmhN40_KnM-97">
          <mxGeometry x="2.3810526315789478" y="21.428571428571427" width="42.858947368421056" height="19.047619047619047" as="geometry" />
        </mxCell>
        <mxCell id="K5e5JTWMxoZmhN40_KnM-103" value="" style="endArrow=none;html=1;rounded=1;strokeWidth=4;strokeColor=#24B064;exitX=0.5;exitY=1;exitDx=0;exitDy=0;" edge="1" parent="1" source="S5FKqw8-091Je8HFVhai-188">
          <mxGeometry width="50" height="50" relative="1" as="geometry">
            <mxPoint x="210" y="900" as="sourcePoint" />
            <mxPoint x="200" y="980" as="targetPoint" />
          </mxGeometry>
        </mxCell>
        <mxCell id="K5e5JTWMxoZmhN40_KnM-105" value="" style="group" vertex="1" connectable="0" parent="1">
          <mxGeometry x="177" y="990" width="45.24000000000001" height="50" as="geometry" />
        </mxCell>
        <mxCell id="K5e5JTWMxoZmhN40_KnM-106" value="" style="rounded=1;whiteSpace=wrap;html=1;strokeWidth=2;fillColor=#000000;" vertex="1" parent="K5e5JTWMxoZmhN40_KnM-105">
          <mxGeometry y="19.04761904761905" width="42.858947368421056" height="19.047619047619047" as="geometry" />
        </mxCell>
        <mxCell id="K5e5JTWMxoZmhN40_KnM-107" value="" style="group" vertex="1" connectable="0" parent="K5e5JTWMxoZmhN40_KnM-105">
          <mxGeometry width="45.24" height="50" as="geometry" />
        </mxCell>
        <mxCell id="K5e5JTWMxoZmhN40_KnM-108" value="" style="shape=note;whiteSpace=wrap;html=1;backgroundOutline=1;darkOpacity=0.05;rounded=1;size=20;strokeWidth=2;" vertex="1" parent="K5e5JTWMxoZmhN40_KnM-107">
          <mxGeometry x="2.3810526315789478" width="38.096842105263164" height="47.61904761904762" as="geometry" />
        </mxCell>
        <mxCell id="K5e5JTWMxoZmhN40_KnM-109" value="" style="shape=note;whiteSpace=wrap;html=1;backgroundOutline=1;darkOpacity=0.05;rounded=1;size=14;strokeWidth=2;" vertex="1" parent="K5e5JTWMxoZmhN40_KnM-107">
          <mxGeometry x="4.7621052631578955" y="2.380952380952381" width="38.096842105263164" height="47.61904761904762" as="geometry" />
        </mxCell>
        <mxCell id="K5e5JTWMxoZmhN40_KnM-110" value="&lt;font color=&quot;#ffffff&quot; face=&quot;Maven Pro&quot;&gt;&lt;b&gt;PDF&lt;/b&gt;&lt;/font&gt;" style="rounded=1;whiteSpace=wrap;html=1;strokeWidth=2;fillColor=#000000;" vertex="1" parent="K5e5JTWMxoZmhN40_KnM-107">
          <mxGeometry x="2.3810526315789478" y="21.428571428571427" width="42.858947368421056" height="19.047619047619047" as="geometry" />
        </mxCell>
        <mxCell id="K5e5JTWMxoZmhN40_KnM-111" value="" style="group" vertex="1" connectable="0" parent="1">
          <mxGeometry x="380" y="990" width="45.24000000000001" height="50" as="geometry" />
        </mxCell>
        <mxCell id="K5e5JTWMxoZmhN40_KnM-112" value="" style="rounded=1;whiteSpace=wrap;html=1;strokeWidth=2;fillColor=#000000;" vertex="1" parent="K5e5JTWMxoZmhN40_KnM-111">
          <mxGeometry y="19.04761904761905" width="42.858947368421056" height="19.047619047619047" as="geometry" />
        </mxCell>
        <mxCell id="K5e5JTWMxoZmhN40_KnM-113" value="" style="group" vertex="1" connectable="0" parent="K5e5JTWMxoZmhN40_KnM-111">
          <mxGeometry width="45.24" height="50" as="geometry" />
        </mxCell>
        <mxCell id="K5e5JTWMxoZmhN40_KnM-114" value="" style="shape=note;whiteSpace=wrap;html=1;backgroundOutline=1;darkOpacity=0.05;rounded=1;size=20;strokeWidth=2;" vertex="1" parent="K5e5JTWMxoZmhN40_KnM-113">
          <mxGeometry x="2.3810526315789478" width="38.096842105263164" height="47.61904761904762" as="geometry" />
        </mxCell>
        <mxCell id="K5e5JTWMxoZmhN40_KnM-115" value="" style="shape=note;whiteSpace=wrap;html=1;backgroundOutline=1;darkOpacity=0.05;rounded=1;size=14;strokeWidth=2;" vertex="1" parent="K5e5JTWMxoZmhN40_KnM-113">
          <mxGeometry x="4.7621052631578955" y="2.380952380952381" width="38.096842105263164" height="47.61904761904762" as="geometry" />
        </mxCell>
        <mxCell id="K5e5JTWMxoZmhN40_KnM-116" value="&lt;font color=&quot;#ffffff&quot; face=&quot;Maven Pro&quot;&gt;&lt;b&gt;PDF&lt;/b&gt;&lt;/font&gt;" style="rounded=1;whiteSpace=wrap;html=1;strokeWidth=2;fillColor=#000000;" vertex="1" parent="K5e5JTWMxoZmhN40_KnM-113">
          <mxGeometry x="2.3810526315789478" y="21.428571428571427" width="42.858947368421056" height="19.047619047619047" as="geometry" />
        </mxCell>
        <mxCell id="K5e5JTWMxoZmhN40_KnM-117" value="" style="endArrow=none;html=1;rounded=1;strokeWidth=4;strokeColor=#24B064;entryX=0.5;entryY=1;entryDx=0;entryDy=0;" edge="1" parent="1" target="S5FKqw8-091Je8HFVhai-190">
          <mxGeometry width="50" height="50" relative="1" as="geometry">
            <mxPoint x="400" y="980" as="sourcePoint" />
            <mxPoint x="320" y="950" as="targetPoint" />
          </mxGeometry>
        </mxCell>
        <mxCell id="S5FKqw8-091Je8HFVhai-190" value="" style="ellipse;whiteSpace=wrap;html=1;aspect=fixed;rounded=1;rotation=0;strokeWidth=4;" parent="1" vertex="1">
          <mxGeometry x="390.24" y="930" width="20" height="20" as="geometry" />
        </mxCell>
        <mxCell id="K5e5JTWMxoZmhN40_KnM-118" value="" style="endArrow=none;html=1;rounded=1;strokeWidth=4;strokeColor=#24B064;entryX=0.5;entryY=1;entryDx=0;entryDy=0;" edge="1" parent="1" target="S5FKqw8-091Je8HFVhai-182">
          <mxGeometry width="50" height="50" relative="1" as="geometry">
            <mxPoint x="330" y="980" as="sourcePoint" />
            <mxPoint x="320" y="950" as="targetPoint" />
          </mxGeometry>
        </mxCell>
        <mxCell id="K5e5JTWMxoZmhN40_KnM-121" value="" style="group" vertex="1" connectable="0" parent="1">
          <mxGeometry x="310" y="990" width="45.24000000000001" height="50" as="geometry" />
        </mxCell>
        <mxCell id="K5e5JTWMxoZmhN40_KnM-122" value="" style="rounded=1;whiteSpace=wrap;html=1;strokeWidth=2;fillColor=#000000;" vertex="1" parent="K5e5JTWMxoZmhN40_KnM-121">
          <mxGeometry y="19.04761904761905" width="42.858947368421056" height="19.047619047619047" as="geometry" />
        </mxCell>
        <mxCell id="K5e5JTWMxoZmhN40_KnM-123" value="" style="group" vertex="1" connectable="0" parent="K5e5JTWMxoZmhN40_KnM-121">
          <mxGeometry width="45.24" height="50" as="geometry" />
        </mxCell>
        <mxCell id="K5e5JTWMxoZmhN40_KnM-124" value="" style="shape=note;whiteSpace=wrap;html=1;backgroundOutline=1;darkOpacity=0.05;rounded=1;size=20;strokeWidth=2;" vertex="1" parent="K5e5JTWMxoZmhN40_KnM-123">
          <mxGeometry x="2.3810526315789478" width="38.096842105263164" height="47.61904761904762" as="geometry" />
        </mxCell>
        <mxCell id="K5e5JTWMxoZmhN40_KnM-125" value="" style="shape=note;whiteSpace=wrap;html=1;backgroundOutline=1;darkOpacity=0.05;rounded=1;size=14;strokeWidth=2;" vertex="1" parent="K5e5JTWMxoZmhN40_KnM-123">
          <mxGeometry x="4.7621052631578955" y="2.380952380952381" width="38.096842105263164" height="47.61904761904762" as="geometry" />
        </mxCell>
        <mxCell id="K5e5JTWMxoZmhN40_KnM-126" value="&lt;font color=&quot;#ffffff&quot; face=&quot;Maven Pro&quot;&gt;&lt;b&gt;TSV&lt;/b&gt;&lt;/font&gt;" style="rounded=1;whiteSpace=wrap;html=1;strokeWidth=2;fillColor=#000000;" vertex="1" parent="K5e5JTWMxoZmhN40_KnM-123">
          <mxGeometry x="2.3810526315789478" y="21.428571428571427" width="42.858947368421056" height="19.047619047619047" as="geometry" />
        </mxCell>
        <mxCell id="S5FKqw8-091Je8HFVhai-182" value="" style="ellipse;whiteSpace=wrap;html=1;aspect=fixed;rounded=1;rotation=0;strokeWidth=4;" parent="1" vertex="1">
          <mxGeometry x="320.38" y="845" width="20" height="20" as="geometry" />
        </mxCell>
        <mxCell id="S5FKqw8-091Je8HFVhai-188" value="" style="ellipse;whiteSpace=wrap;html=1;aspect=fixed;rounded=1;rotation=0;strokeWidth=4;" parent="1" vertex="1">
          <mxGeometry x="190" y="880" width="20" height="20" as="geometry" />
        </mxCell>
        <mxCell id="K5e5JTWMxoZmhN40_KnM-23" value="" style="rounded=0;whiteSpace=wrap;html=1;strokeWidth=0;rotation=90;strokeColor=#FFFFFF;" vertex="1" parent="1">
          <mxGeometry x="374.81" y="174.68" width="10" height="70.63" as="geometry" />
        </mxCell>
        <mxCell id="K5e5JTWMxoZmhN40_KnM-129" value="" style="endArrow=none;html=1;rounded=1;strokeWidth=4;strokeColor=#24B064;" edge="1" parent="1">
          <mxGeometry width="50" height="50" relative="1" as="geometry">
            <mxPoint x="268" y="150" as="sourcePoint" />
            <mxPoint x="268" y="111" as="targetPoint" />
          </mxGeometry>
        </mxCell>
        <mxCell id="K5e5JTWMxoZmhN40_KnM-128" value="" style="html=1;shadow=0;dashed=0;align=center;verticalAlign=middle;shape=mxgraph.arrows2.arrow;dy=0;dx=10;notch=0;rotation=90;strokeColor=#000000;fillColor=#000000;" vertex="1" parent="1">
          <mxGeometry x="262.66" y="107.33" width="14.39" height="10" as="geometry" />
        </mxCell>
        <mxCell id="K5e5JTWMxoZmhN40_KnM-130" value="" style="html=1;shadow=0;dashed=0;align=center;verticalAlign=middle;shape=mxgraph.arrows2.arrow;dy=0;dx=10;notch=0;rotation=90;strokeColor=#000000;fillColor=#000000;" vertex="1" parent="1">
          <mxGeometry x="341.62" y="107.33" width="14.39" height="10" as="geometry" />
        </mxCell>
        <mxCell id="K5e5JTWMxoZmhN40_KnM-132" value="" style="html=1;shadow=0;dashed=0;align=center;verticalAlign=middle;shape=mxgraph.arrows2.arrow;dy=0;dx=10;notch=0;rotation=90;strokeColor=#000000;fillColor=#000000;" vertex="1" parent="1">
          <mxGeometry x="402.81" y="107.33" width="14.39" height="10" as="geometry" />
        </mxCell>
        <mxCell id="K5e5JTWMxoZmhN40_KnM-76" value="" style="rounded=1;whiteSpace=wrap;html=1;strokeWidth=4;arcSize=0;" vertex="1" parent="1">
          <mxGeometry x="259.86" y="150" width="20" height="20" as="geometry" />
        </mxCell>
        <mxCell id="K5e5JTWMxoZmhN40_KnM-138" value="" style="endArrow=none;html=1;rounded=1;strokeWidth=2;" edge="1" parent="1">
          <mxGeometry width="50" height="50" relative="1" as="geometry">
            <mxPoint x="194.62" y="980" as="sourcePoint" />
            <mxPoint x="204.62" y="980" as="targetPoint" />
          </mxGeometry>
        </mxCell>
        <mxCell id="K5e5JTWMxoZmhN40_KnM-139" value="" style="endArrow=none;html=1;rounded=1;strokeWidth=2;" edge="1" parent="1">
          <mxGeometry width="50" height="50" relative="1" as="geometry">
            <mxPoint x="264.85" y="980" as="sourcePoint" />
            <mxPoint x="274.85" y="980" as="targetPoint" />
          </mxGeometry>
        </mxCell>
        <mxCell id="K5e5JTWMxoZmhN40_KnM-140" value="" style="endArrow=none;html=1;rounded=1;strokeWidth=2;" edge="1" parent="1">
          <mxGeometry width="50" height="50" relative="1" as="geometry">
            <mxPoint x="325.38" y="980" as="sourcePoint" />
            <mxPoint x="335.38" y="980" as="targetPoint" />
          </mxGeometry>
        </mxCell>
        <mxCell id="K5e5JTWMxoZmhN40_KnM-141" value="" style="endArrow=none;html=1;rounded=1;strokeWidth=2;" edge="1" parent="1">
          <mxGeometry width="50" height="50" relative="1" as="geometry">
            <mxPoint x="395.24" y="980" as="sourcePoint" />
            <mxPoint x="405.24" y="980" as="targetPoint" />
          </mxGeometry>
        </mxCell>
        <mxCell id="K5e5JTWMxoZmhN40_KnM-142" value="" style="endArrow=none;html=1;rounded=1;strokeWidth=4;strokeColor=#24B064;exitX=0;exitY=0.5;exitDx=0;exitDy=0;exitPerimeter=0;" edge="1" parent="1">
          <mxGeometry width="50" height="50" relative="1" as="geometry">
            <mxPoint x="600" y="80.7" as="sourcePoint" />
            <mxPoint x="650" y="81.02" as="targetPoint" />
          </mxGeometry>
        </mxCell>
        <mxCell id="K5e5JTWMxoZmhN40_KnM-143" value="&lt;b&gt;mandatory&lt;/b&gt;" style="text;html=1;align=center;verticalAlign=middle;whiteSpace=wrap;rounded=0;" vertex="1" parent="1">
          <mxGeometry x="650" y="65.95" width="78.38" height="30" as="geometry" />
        </mxCell>
        <mxCell id="K5e5JTWMxoZmhN40_KnM-144" value="" style="endArrow=none;html=1;rounded=1;strokeWidth=4;strokeColor=#000099;exitX=0;exitY=0.5;exitDx=0;exitDy=0;exitPerimeter=0;" edge="1" parent="1">
          <mxGeometry width="50" height="50" relative="1" as="geometry">
            <mxPoint x="600" y="120" as="sourcePoint" />
            <mxPoint x="650" y="120.32" as="targetPoint" />
          </mxGeometry>
        </mxCell>
        <mxCell id="K5e5JTWMxoZmhN40_KnM-146" value="&lt;b&gt;optional&lt;br&gt;&lt;/b&gt;" style="text;html=1;align=center;verticalAlign=middle;whiteSpace=wrap;rounded=0;" vertex="1" parent="1">
          <mxGeometry x="650" y="107.33" width="78.38" height="30" as="geometry" />
        </mxCell>
      </root>
    </mxGraphModel>
  </diagram>
</mxfile>
